HIERARCHY
ROOT pelvis
{
  OFFSET 0 100 0
  CHANNELS 6 Xposition Yposition Zposition Zrotation Xrotation Yrotation
  JOINT pelvis_right_femur
  {
    OFFSET -10.78128 -3.44521 -0.5502486
    CHANNELS 3 Zrotation Xrotation Yrotation
    JOINT right_femur_tibia
    {
      OFFSET -0.8047443 -44.0398 -0.1307829
      CHANNELS 3 Zrotation Xrotation Yrotation
      JOINT right_tibia_foot
      {
        OFFSET 3.006224 -47.83518 -5
        CHANNELS 3 Zrotation Xrotation Yrotation
        End Site
        {
          OFFSET 0 -5 15
        }
      }
    }
  }
  JOINT pelvis_left_femur
  {
    OFFSET 10.78128 -3.44521 -0.5502486
    CHANNELS 3 Zrotation Xrotation Yrotation
    JOINT left_femur_tibia
    {
      OFFSET 0.8047443 -44.0398 -0.1307829
      CHANNELS 3 Zrotation Xrotation Yrotation
      JOINT left_tibia_foot
      {
        OFFSET -4.370144 -48.10324 -4.275266
        CHANNELS 3 Zrotation Xrotation Yrotation
        End Site
        {
          OFFSET 0 -5 15
        }
      }
    }
  }
  JOINT pelvis_spine1
  {
    OFFSET 0 6.468898 -3.129235
    CHANNELS 3 Zrotation Xrotation Yrotation
    JOINT spine1
    {
      OFFSET 0 23.15396 4.99043
      CHANNELS 3 Zrotation Xrotation Yrotation
      JOINT spine2
      {
        OFFSET 0 20.79997 -5.064912
        CHANNELS 3 Zrotation Xrotation Yrotation
        JOINT neck
        {
          OFFSET 0 14.38658 9.616178
          CHANNELS 3 Zrotation Xrotation Yrotation
          End Site
          {
            OFFSET 0 20 0
          }
        }
      }
      JOINT right_manubrium
      {
        OFFSET -5.722621 16.35077 3.967754
        CHANNELS 3 Zrotation Xrotation Yrotation
        JOINT right_clavicle
        {
          OFFSET -13.16364 1.694482 -4.693211
          CHANNELS 3 Zrotation Xrotation Yrotation
          JOINT right_humerus
          {
            OFFSET -28.5034 -0.3100689 -2.792744
            CHANNELS 3 Zrotation Xrotation Yrotation
            JOINT right_radius
            {
              OFFSET -25.15693 0.02248979 -1.271978
              CHANNELS 3 Zrotation Xrotation Yrotation
              End Site
              {
                OFFSET -15 0 0
              }
            }
          }
        }
      }
      JOINT left_manubrium
      {
        OFFSET 5.722621 16.35077 3.967754
        CHANNELS 3 Zrotation Xrotation Yrotation
        JOINT left_clavicle
        {
          OFFSET 13.16364 1.694482 -4.693211
          CHANNELS 3 Zrotation Xrotation Yrotation
          JOINT left_humerus
          {
            OFFSET 29.39168 -1.063119 -2.237045
            CHANNELS 3 Zrotation Xrotation Yrotation
            JOINT left_radius
            {
              OFFSET 24.59957 -0.9528479 0.9047498
              CHANNELS 3 Zrotation Xrotation Yrotation
              End Site
              {
                OFFSET 15 -0 -0
              }
            }
          }
        }
      }
    }
  }
}
MOTION
Frames: 17
Frame Time: 0.0416666666667
0 103.5113 0 0.09110859 -1.279429 -0.04363131 4.420592 -19.32661 8.645661 -0 36.67668 -0 -5.988763 -12.42792 -2.884808 -6.664656 10.12241 -21.9153 -0 6.854857 -0 7.935849 -17.71243 26.45374 -2.983753 -2.539844 4.416903 2.305012 9.917197 -7.323911 1.642403 21.99522 7.006339 3.309019 -24.99691 9.919616 5.048729 -19.98692 11.4742 86.47183 33.09244 -18.71736 -0 0 16.06604 -8.53954 7.840943 4.661572 6.389417 -19.71285 -1.840864 -94.37587 25.89409 22.08353 0 0 -14.19657 9.692835 16.62043 3.147039
0.32702 103.2661 2.025441 0.04047871 -1.119643 -0.07694942 4.459924 -20.10678 8.324829 -0 35.48634 -0 -5.99513 -12.10002 -2.75249 -6.608387 10.30892 -21.62918 -0 6.748916 -0 7.797121 -18.09801 26.1236 -2.97407 -2.443308 4.376721 2.375052 9.859788 -7.357236 1.649982 21.94145 7.018292 3.30136 -25.10101 9.948438 4.927708 -19.88232 11.43242 86.53786 32.87297 -18.82138 -0 0 15.8788 -8.667209 7.856317 4.708119 6.514323 -19.85516 -1.801574 -94.10602 25.62058 21.67316 0 0 -14.45351 9.989917 16.53116 2.736963
0.6550936 102.8377 4.317206 -0.1463789 0.155458 -0.05129003 4.96555 -23.72411 7.769956 -0 30.44314 -0 -5.766538 -11.42165 -2.29737 -6.485118 11.19292 -20.98455 -0 6.121601 -0 7.705416 -19.67973 25.17731 -3.04326 -2.284319 4.397388 2.814639 9.609881 -7.665712 1.64093 21.40719 7.112659 3.353316 -25.86533 10.10113 4.926505 -19.60359 11.34788 86.50716 33.11151 -19.45973 -0 0 15.56486 -8.424476 8.112744 4.646361 6.995813 -20.32239 -1.391592 -93.40085 24.72597 20.70729 0 0 -15.80289 10.90295 15.9882 1.476754
0.9725564 102.2405 6.899531 -0.3590201 1.252785 0.05081961 5.47224 -26.6805 7.251932 -0 26.26336 -0 -5.71295 -10.33152 -1.900537 -6.323768 12.01243 -20.27196 -0 5.977312 -0 7.301858 -20.94702 24.13526 -3.041819 -2.158005 4.326637 3.179115 9.405078 -7.943661 1.59516 20.95317 7.234513 3.445605 -26.50451 10.17964 4.915825 -19.28634 11.29188 86.56955 33.32247 -20.07619 -0 0 15.09434 -8.329918 8.356922 4.654584 7.375213 -20.75412 -1.084573 -92.82275 24.04158 19.90115 0 0 -17.02914 11.46583 15.51522 0.6287449
1.268729 101.519 9.851206 -0.648869 2.321842 0.2482431 6.071165 -29.42119 6.70729 -0 22.33341 -0 -5.835885 -8.784287 -1.506801 -6.088219 12.87274 -19.38589 -0 6.372701 -0 6.520546 -22.01799 22.80162 -2.941636 -2.035215 4.156431 3.519653 9.213606 -8.229419 1.510129 20.51284 7.391176 3.575492 -27.10934 10.20067 4.884794 -18.88836 11.25474 86.73946 33.50991 -20.75386 -0 0 14.4127 -8.351335 8.626175 4.722153 7.70147 -21.20611 -0.8396992 -92.26242 23.43764 19.11446 0 0 -18.28729 11.82502 15.03621 0.004626317
1.534711 100.7291 13.238 -1.034141 3.290114 0.5522768 6.772401 -31.72074 6.210432 -0 18.98465 -0 -6.159127 -6.943477 -1.148316 -5.76488 13.70158 -18.37574 -0 7.503588 -0 5.309719 -22.71436 21.16398 -2.705171 -1.917091 3.884702 3.813261 9.040034 -8.50701 1.38835 20.10962 7.568847 3.728131 -27.64144 10.15805 4.841244 -18.42292 11.23939 87.00816 33.66286 -21.44998 -0 0 13.57116 -8.460683 8.912799 4.832336 7.926957 -21.62391 -0.6769799 -91.7732 22.98161 18.43134 0 0 -19.43564 11.92102 14.57681 -0.3078414
1.764091 99.94508 17.12782 -1.52895 4.086368 0.9629359 7.57464 -33.40768 5.785642 -0 16.40627 -0 -6.706589 -4.971028 -0.8425563 -5.340265 14.42289 -17.24301 -0 9.634123 -0 3.657433 -22.83776 19.20066 -2.295103 -1.794634 3.512471 4.039976 8.889276 -8.760268 1.234076 19.77084 7.749506 3.879174 -28.05574 10.04595 4.773384 -17.88905 11.24342 87.38585 33.7533 -22.1299 -0 0 12.57217 -8.651964 9.210483 4.981093 8.008775 -21.97715 -0.619981 -91.33689 22.67904 17.84878 0 0 -20.40142 11.76892 14.12917 -0.3053989
1.956311 99.2653 21.57419 -2.123218 4.622865 1.458433 8.445458 -34.24053 5.470007 -0 14.81935 -0 -7.471064 -3.146811 -0.6200961 -4.817461 14.9015 -16.02456 -0 13.07013 -0 1.643678 -22.15039 16.97853 -1.691621 -1.663288 3.067632 4.177787 8.7703 -8.966234 1.057592 19.53077 7.905455 3.995707 -28.29663 9.861975 4.681893 -17.30206 11.26366 87.86129 33.78112 -22.73811 -0 0 11.45585 -8.896923 9.510081 5.15842 7.892177 -22.21902 -0.6868811 -90.94296 22.53809 17.3872 0 0 -21.09174 11.38525 13.67782 0.0228632
2.119481 98.81195 26.59839 -2.765814 4.793955 1.982674 9.290037 -33.9254 5.26568 -0 14.36163 -0 -8.407423 -1.831451 -0.5205083 -4.225465 14.92758 -14.77123 -0 18.13858 -0 -0.5332956 -20.4292 14.67157 -0.9086406 -1.520555 2.61614 4.204692 8.703271 -9.093937 0.8767451 19.43404 7.999097 4.039065 -28.2983 9.60662 4.567328 -16.69826 11.29691 88.40884 33.74945 -23.20534 -0 0 10.28674 -9.176918 9.799015 5.36103 7.525043 -22.30774 -0.8912016 -90.57343 22.54098 17.06457 0 0 -21.42722 10.81243 13.20239 0.6603273
2.271841 98.72191 32.15974 -3.347866 4.50398 2.438921 9.936899 -32.16336 5.129329 -0 14.9752 -0 -9.416087 -1.415925 -0.5833935 -3.631523 14.19691 -13.55532 -0 25.0676 -0 -2.56416 -17.58399 12.55945 -0.02490659 -1.364228 2.278061 4.10867 8.721618 -9.106947 0.7174689 19.52505 7.986969 3.977855 -28.00935 9.285027 4.441536 -16.149 11.34575 88.9654 33.67504 -23.44996 -0 0 9.181097 -9.491217 10.06667 5.59811 6.87863 -22.21625 -1.229123 -90.23127 22.64768 16.92666 0 0 -21.34545 10.10365 12.69416 1.568701
2.437118 99.1152 38.12632 -3.70368 3.70782 2.704593 10.16285 -28.76432 4.964685 -0 16.24862 -0 -10.35534 -2.15338 -0.8133844 -3.140968 12.3336 -12.44533 -0 33.76906 -0 -4.103095 -13.81692 10.95701 0.7895065 -1.185338 2.220445 3.89868 8.870914 -8.969511 0.609536 19.83402 7.830607 3.80834 -27.42327 8.902772 4.328356 -15.76128 11.42638 89.4186 33.58101 -23.38587 -0 0 8.297863 -9.888979 10.3124 5.905623 5.982423 -21.96033 -1.672826 -89.95649 22.79264 17.0473 0 0 -20.83333 9.316863 12.17914 2.673291
2.6309 100.0373 44.26974 -3.655751 2.461191 2.680665 9.796256 -23.816 4.663162 -0 17.36993 -0 -11.08367 -3.922464 -1.133843 -2.859429 8.999708 -11.46471 -0 43.52899 -0 -4.890246 -9.731515 10.10572 1.285115 -0.9622678 2.601042 3.610977 9.192092 -8.658261 0.5753766 20.35582 7.514747 3.572872 -26.60428 8.457642 4.259098 -15.65119 11.5723 89.60804 33.49628 -22.92657 -0 0 7.797418 -10.48301 10.55332 6.350825 4.956062 -21.61843 -2.169476 -89.82647 22.8956 17.49971 0 0 -19.96242 8.507694 11.73176 3.850472
2.844152 101.3938 50.31503 -3.111788 0.9331159 2.355432 8.859628 -17.79106 4.172966 -0 17.3898 -0 -11.51018 -6.113844 -1.389939 -2.801588 4.101524 -10.55229 -0 52.8004 -0 -4.857719 -6.216597 10.10803 1.233596 -0.6684704 3.458628 3.293275 9.687501 -8.173801 0.6173791 21.03502 7.062907 3.349326 -25.66556 7.93926 4.242987 -15.88924 11.81764 89.36655 33.43922 -21.97847 -0 0 7.782113 -11.41377 10.8145 7.007669 4.006201 -21.31067 -2.65072 -89.91342 22.88019 18.2825 0 0 -18.89521 7.738552 11.44967 4.922713
3.042617 102.9285 56.04207 -2.166023 -0.6480618 1.822749 7.629864 -11.43297 3.548257 -0 15.79883 -0 -11.60935 -7.925606 -1.452055 -2.797934 -2.026632 -9.569722 -0 59.42462 -0 -4.169658 -4.029466 10.94237 0.6023499 -0.2937474 4.623652 2.966947 10.28503 -7.54281 0.7158765 21.76937 6.535479 3.196119 -24.69335 7.355748 4.219912 -16.46041 12.15381 88.59521 33.37512 -20.43357 -0 0 8.295102 -12.7497 11.09178 7.902202 3.358615 -21.113 -3.042947 -90.22212 22.69786 19.26888 0 0 -17.81155 7.085039 11.37856 5.704341
3.193489 104.287 61.37399 -1.106635 -2.076524 1.221061 6.515618 -5.417663 2.929354 -0 12.93862 -0 -11.39298 -8.988962 -1.33033 -2.522677 -8.666192 -8.375147 -0 61.41708 -0 -3.172929 -3.335118 12.48423 -0.3442116 0.1404753 5.766795 2.605792 10.83862 -6.810066 0.8391984 22.43416 6.009052 3.094171 -23.69591 6.769895 4.049984 -17.29396 12.49632 87.32551 33.18152 -18.20827 -0 0 9.395926 -14.40413 11.32054 8.981531 3.147114 -20.96938 -3.277451 -90.681 22.34944 20.28305 0 0 -16.78662 6.598083 11.44632 6.115238
3.298385 105.1395 66.3848 -0.2829883 -3.199318 0.6461007 5.819983 -0.05837154 2.45021 -0 9.731625 -0 -10.87365 -9.694469 -1.135072 -1.687568 -15.01219 -6.928917 -0 57.88762 -0 -2.258542 -3.646075 14.47052 -1.171054 0.5757202 6.586337 2.173243 11.18656 -6.037014 0.9483685 22.91485 5.556705 2.960865 -22.66291 6.286098 3.600814 -18.33425 12.71922 85.71329 32.71208 -15.34473 -0 0 11.18253 -16.17153 11.40827 10.15832 3.339315 -20.7169 -3.313453 -91.21252 21.89216 21.2685 0 0 -15.74733 6.23536 11.49829 6.273843
3.399346 105.2873 71.23718 0.07864339 -3.899236 0.1115121 5.583641 4.704137 2.143793 -0 6.992711 -0 -10.06411 -10.80706 -0.9181853 -0.2634383 -20.46671 -5.36058 -0 49.45078 -0 -1.703365 -4.224907 16.50714 -1.549157 0.9102865 6.974786 1.685221 11.2302 -5.307121 0.9979164 23.1369 5.236928 2.732621 -21.66575 5.982005 2.876339 -19.55556 12.73693 83.96018 31.94013 -12.08068 -0 0 13.66699 -17.85207 11.3133 11.38223 3.762768 -20.22039 -3.160191 -91.79753 21.42266 22.34487 0 0 -14.56266 5.857183 11.41599 6.443537
